<?xml version="1.0" encoding="utf-8"?>
<!-- Generator: Adobe Illustrator 21.1.0, SVG Export Plug-In . SVG Version: 6.00 Build 0)  -->
<svg version="1.1" id="Layer_1" xmlns="http://www.w3.org/2000/svg" xmlns:xlink="http://www.w3.org/1999/xlink" x="0px" y="0px"
	 viewBox="0 0 719.5 709.3" style="enable-background:new 0 0 719.5 709.3;" xml:space="preserve">
<style type="text/css">
	.st0{fill:#FFFFFF;}
</style>
<polyline class="st0" points="402.6,495.6 362.7,495.6 322.8,495.6 "/>
<polyline class="st0" points="298.6,493.7 259.2,487.4 219.8,481.2 "/>
<polyline class="st0" points="196.2,475.5 158.3,463.1 120.3,450.8 "/>
<polyline class="st0" points="98,441.5 62.4,423.3 26.8,405.2 "/>
<polyline class="st0" points="6.2,392.5 -26.1,369 -58.3,345.5 "/>
<polyline class="st0" points="715.4,394.9 747.9,371.6 780.3,348.3 "/>
<polyline class="st0" points="623.4,443.3 659,425.3 694.7,407.4 "/>
<polyline class="st0" points="524.8,476.6 562.9,464.5 600.9,452.4 "/>
<polyline class="st0" points="422.3,494.1 461.8,488.1 501.3,482.1 "/>
<line class="st0" x1="727.4" y1="95" x2="-2" y2="95"/>
<g>
	<g>
		<g>
			<path class="st0" d="M576.8,641.6c-25.7,18.2-53.9,33-83.9,43.9c-23.7,8.7-48.5,14.8-73.8,18.3c-27.7,3.8-56,4.2-84.1,1.3
				c-22-2.3-43.3-6.5-63.2-12.5c-22.1-6.7-43.3-15.3-63-25.6C162.5,642.6,123.2,609,92,567.2c-19.9-26.6-35.7-55.8-47-87
				c-8.5-23.4-14.4-47.3-17.7-71.1c-3.3-24.6-4-49.1-2.1-73c2.2-26.4,7.5-52.5,15.6-77.5c17-51.8,45.2-97.3,84-135.2
				c29.5-28.8,63.6-51.6,101.5-67.7c27.2-11.6,55.7-19.4,84.5-23.1c22.9-3,44.2-3.7,65-2.2c13.8,1,27.3,2.8,40.2,5.3
				c31.8,6.2,62.6,17.2,91.6,32.8c13.2,7.1,25.8,15.1,37.6,23.8c26.2,19.4,49,42.2,67.8,67.9c26.1,35.7,44.1,75.6,53.6,118.4
				c5.1,23,7.5,46.9,7.3,70.8c-0.3,28.7-4.7,57.5-13,85.4c-10.3,34.7-26.4,66.8-47.9,95.4c-31.7,42.2-71.9,74.4-119.5,95.7
				c-18.9,8.4-38.8,14.9-59.2,19.2c-2.8,0.6-5.3,1.1-7.7,1.6c-33.8,6.4-68,7-101.6,1.8c-34-5.3-65.9-16.1-94.7-32
				C163,579.2,116.5,523.5,92.2,450.6c-9.6-28.7-14.2-59.4-13.8-91.4c0.3-21,2.9-42.1,7.9-62.7c6.8-28.4,18-55.4,33.2-80.3
				c14.9-24.5,33.6-46.5,55.4-65.5c26-22.5,55.5-39.8,87.9-51.4c24-8.6,49.2-13.8,74.7-15.5c25.9-1.6,51.5,0.4,76.1,6
				c18.5,4.2,36,10.1,52.1,17.4c41.8,19.1,76.5,46.9,103.1,82.6c31.3,42,48.8,89.5,52,141.1c1.3,20.4,0.1,40.7-3.4,60.4
				c-3.5,19.6-9.2,38.7-16.9,56.7c-12.8,30-31.3,57.1-55,80.6c-14.2,14-30.2,26.4-47.6,36.7c-36.7,21.7-76.4,33.5-118.2,35
				c-21.1,0.7-41.9-1.1-61.8-5.6c-15.7-3.5-30.6-8.3-44.4-14.4c-32.2-14.1-60.2-34.3-83.3-60c-26.6-29.6-44.8-64.1-54.2-102.6
				c-7.3-29.8-8.6-60.1-4-90.1c5.9-38,20.4-72.8,43.2-103.4c23.5-31.4,53.5-55.3,89.2-71.2c38.9-17.2,79.8-22.9,121.5-16.9
				c36.6,5.3,70,19.2,99.5,41.3c25.8,19.3,46.6,44,61.8,73.2c6.9,13.3,12.5,27.9,16.4,43.4c6.8,26.3,8.4,53.2,4.7,80
				c-4.7,35-17.8,67-38.9,95.2c-19.8,26.6-45.2,47.2-75.3,61.5c-23.5,11.1-48.7,17.3-74.8,18.5c-25.1,1.1-49.6-2.5-72.9-10.8
				c-34-12.1-62.5-32.2-84.8-59.7c-25.4-31.5-39.2-67.8-41.2-108c-1.5-29.9,4.3-58.8,17.2-85.8c10.4-21.7,24.6-40.7,42.2-56.4
				c14.8-13.1,31.5-23.6,49.7-31c27.5-11.2,56.2-15.1,85.2-11.6c26.8,3.3,51.6,12.5,73.7,27.5c20.4,13.8,36.8,31.3,48.8,51.9
				c19.6,33.7,26.3,69.8,20,107.4c-4.2,25-14.2,48-29.8,68.2c-9.4,12.3-20.6,22.9-33.2,31.4c-31.8,21.7-66.6,30.1-103.3,25
				c-37.2-5.2-67.9-22.6-91.2-51.9c-15.9-20.1-25.4-43.1-28.2-68.4c-3.2-29.1,2.5-55.9,16.8-79.8c21.9-36.6,54.1-57.2,95.7-61.4
				c24.3-2.4,47.1,2.5,68,14.7c30.4,17.7,48.9,43.8,54.9,77.5c4.3,23.9,0.4,47.1-11.5,68.7c-8.7,15.7-20.9,28.3-36.4,37.4
				c-18.8,11-39,15.2-60,12.5c-27.7-3.6-49.1-17-63.7-39.8c-14.7-23-17.3-47.6-7.8-72.9c11.5-30.5,42.3-50.2,73.3-46.7
				c24.6,2.7,42,15.1,51.7,36.9c3.6,8.1,5.1,16.8,4.6,25.1c1.5-15.9-4-30.5-16.5-43.6c-13.9-14.6-31.8-21.1-53.3-19.3
				c-14.6,1.2-27.8,6.8-39.3,16.4c-16.5,13.9-25.8,32.1-27.5,54.3c-1.7,21.5,4.2,40.9,17.4,57.7c21.2,26.9,49.8,38.7,85,35.2
				c10.9-1.1,21.4-4.1,31-8.9c28.2-14.1,46.7-36.6,55.1-66.9c7.1-25.7,5-51.1-6.4-75.4c-15.3-32.7-41.3-54.4-77.1-64.5
				c-15.4-4.3-31.7-5.4-48.6-3.1c-10.8,1.4-20.9,4.1-30.2,7.9c-33.7,13.9-58.1,38.2-72.3,72c-9.5,22.6-12.5,46.6-9.1,71.4
				c3.9,28,15.6,53.2,34.7,74.9c10.5,12,22.9,22,36.8,29.8c29.2,16.4,60.8,22.7,93.8,18.5c37.1-4.7,69.1-21.1,95.2-48.8
				c25.4-27.1,40-60.3,43.3-98.7c2.2-25.6-1.7-51.1-11.6-75.6c-10.3-25.7-26-47.8-46.7-65.9c-25.4-22.2-55.5-36.2-89.5-41.6
				c-24.3-3.9-48.8-2.7-73,3.5c-31.4,8.1-59.1,23.4-82.1,45.5c-30,28.7-49,64.3-56.5,105.9c-3.9,21.5-4,43.7-0.2,66
				c4.1,24.3,12.5,47.3,25,68.4c17.7,29.7,41.8,53.7,71.8,71.3c27.3,16.1,57.1,25.4,88.6,27.8c17.5,1.3,34.6,0.6,50.9-2.1
				c25.8-4.3,50.2-13.1,72.8-26.3c28.3-16.5,52-38.9,70.6-66.4c8-11.9,14.9-24.7,20.4-38.2c7.2-17.4,12.1-35.4,14.7-53.4
				c3.2-22.3,3-44.8-0.4-66.7c-4.9-30.7-15.7-59.6-32.2-85.7c-17.5-27.8-40.3-51.1-67.6-69.3c-16.4-10.9-34-19.7-52.3-26.1
				c-27.6-9.6-56.3-14.1-85.3-13.2c-12.1,0.4-24,1.6-35.2,3.6c-27.5,5-53.8,14.6-78.2,28.7c-31.7,18.3-58.4,43-79.4,73.5
				c-9.2,13.3-17,27.6-23.8,43.6c-8.5,19.8-14.4,41.2-17.5,63.7c-2.7,18.9-3.1,36.2-1.4,53l0.2,1.9c0.8,8.3,1.7,16.8,3.2,25.1
				c5.2,28.4,15.1,55.5,29.4,80.5c9.9,17.3,21.9,33.6,35.6,48.4c10.3,11.1,22.1,21.5,35.9,31.8c15.4,11.4,32.5,21.3,50.7,29.2
				c23.2,10.1,47.8,16.8,73.1,19.9c23.5,2.9,47.4,2.6,71-0.8c26.5-3.8,52.1-11.6,76.3-23c27.3-12.9,52.2-30.2,73.9-51.5
				c28.7-28.1,50.5-61.4,64.9-98.9c11-28.8,17.1-58.9,18.2-89.5c0.8-23.5-1.2-46.7-6-69c-4.2-19.5-10.5-38.8-18.8-57.3
				c-7.3-16.4-16.1-31.8-26-46c-33.4-47.8-78.3-83-133.5-104.7c-24.9-9.8-51.5-16-79.2-18.5c-20.3-1.8-41.1-1.5-61.7,1
				c-9,1.1-18,2.6-26.9,4.5c-33.1,7.2-64.5,19.9-93.5,37.8c-27.8,17.2-52.6,38.8-73.7,64.2c-15.1,18.2-28,38.1-38.5,59.4
				c-10.9,22.1-19.1,45.6-24.5,69.9c-5.9,27-8.2,54.8-6.7,82.7c1.1,19.9,4.1,39.9,9.2,59.4c8.2,31.8,21,61.7,38.1,89
				c17.7,28.2,39.8,53.4,65.6,74.9c33.3,27.7,71.5,48,113.6,60.5c20.5,6.1,42.5,10.1,65.4,12c24.9,2,50.6,1,76.3-3.1
				c27.1-4.3,53.8-12.3,79.5-23.6c16.4-7.3,32-15.7,46.2-25c28-18.3,52.8-40.6,73.8-66c10.5-12.7,19.8-25.9,27.8-39.1
				c15.9-26.4,28-54.7,36.1-84c9.1-33.1,13-67.4,11.6-102c-0.9-22.7-4.2-45.8-10-68.6c-9.3-36.9-24.8-71.9-46-104.1
				C623,131.4,600,106,573.5,84.3c-24.4-20-51.6-36.6-81-49.4c-22.6-9.9-46.4-17.3-70.7-22.1c-20.1-4-40.6-6.1-61.1-6.5
				c-30.7-0.5-61.2,3-90.6,10.3C228.4,27.1,189.1,45,153.3,70c-11.9,8.3-23.6,17.6-34.6,27.7C93.1,120.9,71,147.8,53,177.5
				C41.2,197,31.2,218.1,23.2,240c-9.3,25.5-15.7,52.3-19,79.5c-3.7,30.2-3.5,60.9,0.6,91.3c2.8,20.9,7.5,41.9,14,62.3
				c6.5,20.3,14.9,40.4,25,59.7c10.7,20.4,23,39.2,36.6,56c7.8,9.6,15.9,18.9,24.2,27.6c21.2,22.3,46.1,42.2,74.1,59.2
				c28.3,17.2,59,30.5,91.2,39.7h203.7c19.4-5.5,38.5-12.6,56.9-21.1c33.7-15.6,65.1-36.4,93.4-61.6c25.9-23.1,48.6-49.9,67.5-79.5
				c14-22,25.9-45.9,35.4-70.8v-94.4c-1.3,11-3.1,22-5.3,32.7c-3.7,17.6-8.6,34.5-14.4,50.4c-13.4,36.4-32.3,70.2-56.4,100.6
				C629.5,598.4,604.6,622,576.8,641.6z"/>
			<path class="st0" d="M532.9-7.4c0.1-0.4,0.4-0.6,0.8-0.6h2.5c-7.5-3.8-15.1-7.4-22.5-10.6c-0.6-0.3-1.2-0.6-1.7-0.9l-0.6-0.3
				H395.7c17.4,1.9,34.6,5.1,51.4,9.4c2.6,0.7,5.3,1.4,8.6,2.3l14.4,0l3.7,1.4c2.7,1,5.4,2,8,2.9c18,6.4,35.5,14.3,52.1,23.2
				c33.1,17.9,63.2,40.6,89.5,67.4c18.6,18.9,35.1,39.9,49.2,62.4c16.6,26.6,29.7,54.7,39,83.6c6.7,20.8,11.5,42.5,14.4,64.4
				c0.3,2.1,0.5,4.2,0.8,6.4v-95.2c-11.5-30.9-27.1-60.4-46.1-87.6c-20.6-29.4-45.1-55.9-72.8-78.6C585.6,24.2,561.2,8.3,535.3-5
				c-0.5-0.3-1-0.6-1.5-1c-0.2-0.2-0.4-0.3-0.6-0.4C532.9-6.6,532.7-7,532.9-7.4z"/>
			<path class="st0" d="M174.3-6.4c-1.5,0.8-3,1.6-4.5,2.4L169-3.5c-3.7,2-7.4,4-11.1,6c-16.2,9-32.3,19.4-47.9,31.1
				C89.1,49.3,69,67.8,50.4,88.7c-15.6,17.5-30.1,36.9-44.1,59.6c-1.4,2.3-2.8,4.7-4,6.9c-0.8,1.4-1.6,2.8-2.4,4.2
				c-0.3,0.5-0.6,0.8-1,1.2c-0.2,0.2-0.3,0.3-0.4,0.5c-0.2,0.2-0.4,0.3-0.6,0.3l-0.3-0.1c-0.3-0.1-0.5-0.4-0.5-0.8V159
				c-0.8,1.4-1.5,2.7-2.3,4.1c-0.6,1.1-1.3,2.2-2,3.2c-0.3,0.4-0.5,0.8-0.8,1.3v73c1.5-4.6,3.2-9.4,5.1-14.2v-10.1
				c0-0.1,0-0.3,0.1-0.4l0,0c0.3-0.5,0.6-1.1,0.9-1.6c0.6-1.1,1.2-2.2,1.7-3.4c6.7-16.7,15.3-33.4,26-51.1
				c17.4-28.6,38.5-55,62.9-78.4c25.8-24.8,55.1-46,87.1-62.9c18.9-10,39-18.5,59.5-25.2c0.5-0.2,1-0.4,1.5-0.7
				c0.3-0.1,0.5-0.3,0.8-0.4c0.1-0.1,0.2-0.1,0.4-0.1h13.7c19.8-5.6,40.1-9.5,60.5-11.8H196.2c-0.6,0.3-1.1,0.6-1.7,0.9
				c-1.3,0.7-2.7,1.4-4.1,2c-6.1,2.7-12.5,5.7-18.9,8.9h2.4c0.4,0,0.7,0.3,0.8,0.6C174.8-6.9,174.7-6.6,174.3-6.4z"/>
			<path class="st0" d="M-1.6,566.4c0.2,0.3,0.4,0.5,0.6,0.8c0.5,0.7,1,1.3,1.4,2c9.5,16.7,20.1,32.8,31.4,47.7
				c17.8,23.5,38.3,45.3,60.8,64.8c13.9,12,28.9,23.3,44.7,33.7h45c-36.4-19.2-69.3-43.5-98-72.5c-36-36.4-64.4-78.6-84.3-125.5
				c-0.7-1.5-1.4-3.1-2-4.5c-0.3-0.7-0.7-1.4-1-2.1c0-0.1-0.1-0.2-0.1-0.3v-9.7c-0.8-2.3-1.7-4.5-2.5-6.8c-0.8-2.4-1.7-4.7-2.6-7.1
				v71.9l1.8,3.1c1.1,1.9,2.2,3.7,3.2,5.6v-0.6c0-0.4,0.2-0.7,0.6-0.8C-2.2,566-1.8,566.1-1.6,566.4z"/>
			<path class="st0" d="M607.5,686.8c-14.8,10.4-30.5,20-46.7,28.5h46.5c35.1-22.7,66.7-50.4,94.1-82.2
				c8.8-10.3,17.4-21.3,25.5-32.8v-43.9c-13,22.4-28.2,43.7-45.3,63.4C659.7,645,634.8,667.6,607.5,686.8z"/>
			<path class="st0" d="M592-7.9c0.2,0,0.3,0.1,0.5,0.2l0.8,0.6c0.6,0.4,1.1,0.8,1.7,1.2c15.7,10.5,30.9,22.2,45.2,34.9
				c20.6,18.3,39.4,38.4,55.8,60c11.1,14.5,21.5,30.1,30.9,46.4V89.7c-0.1-0.1-0.3-0.3-0.4-0.4c-0.6-0.6-1.1-1.2-1.6-1.8
				c-13.5-19.1-28.6-37.2-44.7-53.8c-18.7-19.1-38.9-36.5-60.2-51.7c-0.5-0.4-1-0.9-1.5-1.3c-0.1-0.1-0.3-0.2-0.4-0.4h-48.5
				c0.4,0.3,0.8,0.5,1.2,0.8c5.8,3.4,11.8,7.1,17.8,11H592z"/>
			<path class="st0" d="M4.8,96.8l0.2-0.2C8.8,91.4,12.8,86.1,17,81c27.6-33.6,59.9-62.9,96-86.9c0.5-0.3,0.9-0.7,1.4-1.2
				c0.3-0.2,0.5-0.5,0.7-0.7c0.2-0.1,0.4-0.2,0.6-0.2h2l0.6-0.4c0.3-0.2,0.6-0.4,0.9-0.6c4.6-2.9,9.2-5.8,13.7-8.5l0.2-0.1
				c1.2-0.7,2.5-1.5,3.7-2.3H89.5c-1.8,1.3-3.5,2.6-5.3,3.9c-4,3-8.1,6.1-12.1,9.1C42.9,16,16.5,42-6.4,70.8c-0.4,0.5-0.9,1-1.4,1.4
				c-0.1,0.1-0.2,0.2-0.4,0.3v42.9c0.2-0.3,0.4-0.5,0.6-0.8c1.5-2.2,3-4.3,4.5-6.4v-1.1c0-0.2,0.1-0.4,0.2-0.6l0,0
				c0.2-0.2,0.4-0.5,0.7-0.7c0.4-0.5,0.9-0.9,1.3-1.4C1,101.9,2.9,99.3,4.8,96.8z"/>
			<path class="st0" d="M33.9,667.1c-11.7-12.8-22.5-26.1-32.1-39.5c-2.6-3.7-5.2-7.3-7.9-11l-2-2.8v39.4c1.9,2.3,3.8,4.6,5.8,6.9
				c4.3,5.2,8.8,10.6,13.3,15.8c11.1,12.7,23.4,25.1,36.4,37c0.7,0.6,1.3,1.2,1.8,1.8c0.2,0.2,0.4,0.4,0.5,0.6h35.5
				C66.6,700.3,49.4,684.1,33.9,667.1z"/>
			<path class="st0" d="M725.4,682.4c0.4-0.4,0.8-0.7,1.2-0.9l0,0c0.1,0,0.1-0.1,0.2-0.1v-30.2c-14.8,17.5-30.8,33.7-47.4,48.2
				c-4.7,4.1-9.5,8.1-14.1,12l-0.3,0.3c-1.5,1.2-2.9,2.5-4.4,3.7h31.7l0.1-0.2c0.4-0.6,0.7-1,1.1-1.5
				C704.1,703.2,714.8,692.8,725.4,682.4z"/>
			<path class="st0" d="M723.4,33.1c1.1,1.3,2.3,2.5,3.3,3.7l0.1,0.1V11.1l-0.6-0.6c-0.7-0.6-1.3-1.2-2-1.9
				c-8.8-8.8-17.6-17.6-26.4-26.4c-0.5-0.5-1-1-1.4-1.5l-0.4-0.4h-25.3c0.1,0.1,0.2,0.2,0.3,0.3C690-3,707.6,14.7,723.4,33.1z"/>
			<path class="st0" d="M27.4-14.7c1.7-1.5,3.3-3,4.9-4.4l0.7-0.6H12.8l-3.3,3.2C4-11.2-1.5-5.9-6.9-0.7c-0.4,0.3-0.8,0.6-1.1,0.8
				l-0.1,0v19.3c0.2-0.2,0.4-0.4,0.6-0.6C3.6,7.1,15.3-4.1,27.4-14.7z"/>
			<path class="st0" d="M400.3,60.7c34,5.3,65.9,16.1,94.7,32c67.4,37.1,113.9,92.9,138.2,165.7c9.6,28.7,14.2,59.4,13.8,91.4
				c-0.3,21-2.9,42.1-7.9,62.7c-6.8,28.4-18,55.4-33.2,80.3c-14.9,24.5-33.6,46.5-55.4,65.5c-26,22.5-55.5,39.8-87.9,51.4
				c-24,8.6-49.2,13.8-74.7,15.5c-25.9,1.6-51.5-0.4-76.1-6c-18.5-4.2-36-10.1-52.1-17.4c-41.8-19.1-76.5-46.9-103.1-82.6
				c-31.3-42-48.8-89.5-52-141.1c-1.3-20.4-0.1-40.7,3.4-60.4c3.5-19.6,9.2-38.7,16.9-56.7c12.8-30,31.3-57.1,55-80.6
				c14.2-14,30.2-26.4,47.6-36.7c36.7-21.7,76.4-33.5,118.2-35c21.1-0.8,41.8,1.1,61.8,5.6c15.7,3.5,30.6,8.3,44.4,14.4
				c32.2,14.1,60.2,34.3,83.3,60c26.6,29.6,44.8,64.1,54.2,102.6c7.3,29.8,8.6,60.1,4,90.1c-5.9,38-20.4,72.8-43.2,103.4
				c-23.5,31.4-53.5,55.3-89.2,71.2c-38.9,17.2-79.8,22.9-121.5,16.9c-36.6-5.3-70-19.2-99.5-41.3c-25.8-19.3-46.6-44-61.8-73.2
				c-6.9-13.3-12.5-27.9-16.4-43.4c-6.8-26.3-8.4-53.2-4.7-80c4.7-35,17.8-67,38.9-95.2c19.8-26.6,45.2-47.2,75.3-61.5
				c23.5-11.1,48.7-17.3,74.8-18.5c25.1-1.1,49.6,2.5,72.9,10.8c34,12.1,62.5,32.2,84.8,59.7c25.4,31.5,39.2,67.8,41.2,108
				c1.5,29.9-4.3,58.8-17.2,85.8c-10.4,21.7-24.6,40.7-42.2,56.4c-14.8,13.1-31.5,23.6-49.7,31c-27.5,11.2-56.2,15.1-85.2,11.6
				c-26.8-3.3-51.6-12.5-73.7-27.5c-20.4-13.8-36.8-31.3-48.8-51.9c-19.6-33.7-26.3-69.8-20-107.4c4.2-25,14.2-48,29.8-68.2
				c9.4-12.3,20.6-22.9,33.2-31.4c31.8-21.7,66.6-30.1,103.3-25c37.2,5.2,67.9,22.6,91.2,51.9c15.9,20.1,25.4,43.1,28.2,68.4
				c3.2,29.1-2.5,55.9-16.8,79.8c-21.9,36.6-54.1,57.2-95.7,61.4c-24.3,2.4-47.2-2.5-68-14.7c-30.4-17.7-48.9-43.8-54.9-77.5
				c-4.3-23.9-0.4-47.1,11.5-68.7c8.7-15.7,20.9-28.3,36.4-37.4c18.8-11,39-15.2,60-12.5c27.7,3.6,49.1,17,63.7,39.8
				c14.7,23,17.3,47.6,7.8,72.9c-11.5,30.5-42.3,50.2-73.3,46.7c-24.6-2.7-42-15.1-51.7-36.9c-3.6-8.1-5.1-16.8-4.6-25.1
				c-1.5,15.9,4,30.5,16.5,43.6c13.9,14.6,31.8,21.1,53.3,19.3c14.6-1.2,27.8-6.8,39.3-16.4c16.5-13.9,25.8-32.1,27.5-54.3
				c1.7-21.5-4.2-40.9-17.4-57.7c-21.2-26.9-49.8-38.7-85-35.2c-10.9,1.1-21.4,4.1-31,8.9c-28.2,14.1-46.7,36.6-55.1,66.9
				c-7.1,25.7-5,51.1,6.4,75.4c15.3,32.7,41.3,54.4,77.1,64.5c15.4,4.3,31.8,5.4,48.6,3.1c10.8-1.4,20.9-4.1,30.2-7.9
				c33.7-13.9,58.1-38.2,72.3-72c9.5-22.6,12.5-46.6,9.1-71.4c-3.9-28-15.6-53.2-34.7-74.9c-10.5-12-22.9-22-36.8-29.8
				c-29.2-16.4-60.8-22.7-93.8-18.5c-37.1,4.7-69.1,21.1-95.2,48.8c-25.4,27.1-40,60.3-43.3,98.7c-2.2,25.6,1.7,51.1,11.6,75.6
				c10.3,25.7,26,47.8,46.7,65.9c25.4,22.2,55.5,36.2,89.5,41.6c24.3,3.9,48.8,2.7,73-3.5c31.4-8.1,59.1-23.4,82.1-45.5
				c30-28.7,49-64.3,56.5-105.9c3.9-21.5,4-43.7,0.2-66c-4.1-24.3-12.5-47.3-25-68.4c-17.7-29.7-41.8-53.7-71.8-71.3
				c-27.3-16.1-57.1-25.4-88.6-27.8c-17.5-1.3-34.6-0.6-50.9,2.1c-25.8,4.3-50.2,13.1-72.8,26.3c-28.3,16.5-52,38.9-70.6,66.4
				c-8,11.9-14.9,24.7-20.4,38.2c-7.2,17.4-12.1,35.4-14.7,53.4c-3.2,22.3-3,44.8,0.4,66.7c4.9,30.7,15.7,59.6,32.2,85.7
				c17.5,27.8,40.3,51.1,67.6,69.3c16.4,10.9,34,19.7,52.3,26.1c27.7,9.6,56.4,14.1,85.3,13.2c12.1-0.4,24-1.6,35.2-3.6
				c27.5-5,53.8-14.6,78.2-28.7c31.7-18.3,58.4-43,79.4-73.5c9.2-13.3,17-27.6,23.8-43.6c8.5-19.8,14.4-41.2,17.5-63.7
				c2.7-18.9,3.1-36.2,1.4-53l-0.2-1.9c-0.8-8.3-1.7-16.8-3.2-25.1C605.9,271,596,244,581.7,219c-9.9-17.3-21.9-33.6-35.6-48.4
				c-10.3-11.1-22.1-21.5-35.9-31.8c-15.4-11.4-32.5-21.3-50.7-29.2c-23.2-10.1-47.8-16.8-73.1-19.9c-23.5-2.9-47.4-2.6-71,0.8
				c-26.5,3.8-52.1,11.6-76.3,23c-27.3,12.9-52.2,30.2-73.9,51.5c-28.7,28.1-50.5,61.4-64.9,98.9c-11,28.8-17.1,58.9-18.2,89.5
				c-0.8,23.5,1.2,46.7,6,69c4.2,19.5,10.5,38.8,18.8,57.3c7.3,16.4,16.1,31.8,26,46c33.4,47.8,78.3,83,133.5,104.7
				c24.9,9.8,51.5,16,79.2,18.5c20.3,1.8,41.1,1.5,61.7-1c9-1.1,18-2.6,26.9-4.5c22.7-4.9,44.7-12.5,65.6-22.6
				c3.8-1.8,7.6-3.7,11.3-5.7c3.7-2,7.4-4.1,11.1-6.2c1.8-1.1,3.6-2.2,5.5-3.3c27.8-17.2,52.6-38.8,73.7-64.2
				c15.1-18.2,28-38.1,38.5-59.4c10.9-22.1,19.1-45.6,24.5-69.9c5.9-27,8.2-54.8,6.7-82.7c-0.7-14.1-2.5-28.2-5.3-42.2
				c-1.1-5.8-2.4-11.6-3.9-17.3c-1-4-2.1-7.9-3.3-11.8c-1.2-3.9-2.4-7.8-3.7-11.6c-2-5.8-4.1-11.5-6.4-17.1
				c-6.9-16.9-15.1-33.1-24.8-48.4c-10-15.9-21.3-30.8-33.9-44.6c-9.8-10.8-20.4-20.9-31.7-30.3c-33.3-27.7-71.5-48-113.6-60.5
				c-20.5-6.1-42.5-10.1-65.4-12c-2.8-0.2-5.6-0.4-8.3-0.5c-0.7,0-1.4-0.1-2-0.1c-2.8-0.1-5.6-0.2-8.4-0.3c-0.1,0-0.2,0-0.3,0
				c-2.7-0.1-5.4-0.1-8.2,0c-0.7,0-1.4,0-2.1,0c-2.8,0-5.6,0.1-8.5,0.2c-0.1,0-0.2,0-0.3,0c-2.7,0.1-5.5,0.3-8.2,0.5
				c-0.7,0-1.4,0.1-2.1,0.2c-2.8,0.2-5.7,0.4-8.5,0.7c-0.1,0-0.1,0-0.2,0c-2.8,0.3-5.6,0.6-8.4,1c-0.7,0.1-1.5,0.2-2.2,0.3
				c-2.8,0.4-5.6,0.8-8.4,1.2c0,0-0.1,0-0.1,0c-20.3,3.2-40.4,8.5-60,15.7c-6.5,2.4-13,5-19.4,7.9c-16.4,7.3-32,15.7-46.2,25
				c-28,18.3-52.8,40.6-73.8,66c-10.5,12.7-19.8,25.9-27.8,39.1c-15.9,26.4-28,54.7-36.1,84c-9.1,33.1-13,67.4-11.6,102
				c0.9,22.7,4.2,45.8,10,68.6c9.3,36.9,24.8,71.9,46,104.1c18.8,28.4,41.8,53.9,68.3,75.6c24.4,20,51.6,36.6,81,49.4
				c8.5,3.7,17.1,7,25.9,10.1c14.6,5,29.6,9,44.9,12c12.5,2.5,25.3,4.2,38,5.3c7.7,0.6,15.4,1,23,1.1c30.7,0.5,61.2-3,90.6-10.3
				C497,681.9,536.3,664,572.1,639c10.4-7.3,20.6-15.3,30.4-23.9c1.4-1.2,2.8-2.5,4.2-3.7c20.8-18.9,39.3-40.2,55.1-63.4
				c3.7-5.4,7.2-10.8,10.5-16.4c11.8-19.6,21.9-40.6,29.9-62.6c9.3-25.5,15.7-52.3,19-79.5c3.7-30.2,3.5-60.9-0.6-91.3
				c-2.8-20.9-7.5-41.9-14-62.3c-6.5-20.3-14.9-40.4-25-59.7c-10.7-20.4-23-39.2-36.6-56c-7.8-9.6-15.9-18.9-24.2-27.6
				c-21.2-22.3-46.1-42.2-74.1-59.2c-1.8-1.1-3.6-2.1-5.3-3.2c-0.6-0.4-1.3-0.7-2-1.1c-1.1-0.7-2.3-1.3-3.4-2
				c-0.5-0.3-1-0.6-1.6-0.9c-1.3-0.7-2.6-1.4-3.9-2.1c-0.7-0.4-1.4-0.7-2.1-1.1c-1.1-0.6-2.3-1.2-3.4-1.8c-0.6-0.3-1.2-0.6-1.9-0.9
				c-1.2-0.6-2.5-1.3-3.7-1.9c-0.6-0.3-1.3-0.6-2-0.9c-1.2-0.6-2.4-1.2-3.7-1.8c-0.5-0.2-1-0.4-1.4-0.7c-1.4-0.7-2.8-1.3-4.2-2
				c-0.6-0.3-1.2-0.5-1.8-0.8c-1.3-0.6-2.6-1.2-3.9-1.7c-0.5-0.2-1-0.4-1.4-0.6c-1.4-0.6-2.9-1.2-4.3-1.8c-0.4-0.2-0.9-0.4-1.3-0.5
				c-1.5-0.6-3-1.2-4.5-1.8c-0.3-0.1-0.7-0.3-1-0.4c-1.6-0.6-3.2-1.2-4.8-1.8c-0.3-0.1-0.6-0.2-0.8-0.3c-1.7-0.6-3.3-1.2-5-1.8
				c-0.4-0.1-0.7-0.3-1.1-0.4c-1.6-0.6-3.2-1.1-4.8-1.7c-0.5-0.2-1-0.3-1.5-0.5c-1.5-0.5-2.9-1-4.4-1.5c-0.6-0.2-1.2-0.4-1.8-0.6
				c-1.4-0.4-2.8-0.9-4.2-1.3c-0.7-0.2-1.4-0.4-2.1-0.6c-1.3-0.4-2.6-0.8-3.9-1.1H251.7c-1,0.3-1.9,0.6-2.9,0.8
				c-1.5,0.4-2.9,0.8-4.4,1.3c-0.9,0.3-1.8,0.6-2.6,0.8c-1.5,0.5-3.1,0.9-4.6,1.4c-0.9,0.3-1.8,0.6-2.7,0.9c-1.5,0.5-3,1-4.5,1.5
				c-1,0.3-1.9,0.7-2.9,1c-1.4,0.5-2.8,1-4.3,1.5c-1.1,0.4-2.2,0.8-3.3,1.2c-1.3,0.5-2.6,1-3.8,1.5c-1.2,0.5-2.4,1-3.6,1.5
				c-1.2,0.5-2.3,0.9-3.5,1.4c-1.7,0.7-3.4,1.5-5.1,2.2c-0.6,0.3-1.2,0.5-1.8,0.8c-2.3,1-4.6,2.1-6.9,3.1
				c-33.7,15.6-65.1,36.4-93.4,61.6c-25.9,23.1-48.6,49.9-67.5,79.5c-3.4,5.4-6.7,10.9-9.9,16.5c-0.1,0.1-0.1,0.2-0.2,0.3
				c-1.4,2.5-2.8,5-4.1,7.5c-0.2,0.4-0.4,0.7-0.6,1.1c-1.2,2.3-2.4,4.7-3.6,7.1c-0.3,0.6-0.6,1.2-0.9,1.7c-1.1,2.1-2.1,4.3-3.1,6.4
				c-0.4,0.8-0.8,1.7-1.2,2.5c-0.9,2-1.8,4-2.7,6.1c-0.4,1-0.9,2-1.4,3c-0.8,1.9-1.6,3.8-2.4,5.6c-0.5,1.2-1,2.4-1.5,3.6
				c-0.7,1.7-1.3,3.3-2,5c-0.6,1.4-1.1,2.8-1.7,4.3v94.4c0-0.1,0-0.3,0.1-0.4c0.3-2.4,0.6-4.7,0.9-7.1c0.1-0.6,0.2-1.2,0.3-1.8
				c0.3-2.2,0.6-4.4,1-6.5c0-0.3,0.1-0.6,0.1-0.8c0.4-2.4,0.8-4.8,1.3-7.2c0.1-0.6,0.2-1.1,0.3-1.7c0.5-2.4,0.9-4.8,1.4-7.2
				c3.7-17.6,8.6-34.5,14.4-50.4c13.4-36.4,32.3-70.2,56.4-100.6c21.2-26.7,46-50.3,73.9-70c25.7-18.2,53.9-33,83.9-43.9
				c23.7-8.7,48.5-14.8,73.8-18.3c27.7-3.8,56-4.2,84.1-1.3c8.2,0.9,16.4,2,24.4,3.4c13.4,2.3,26.3,5.4,38.8,9.1
				c13.8,4.2,27.3,9.1,40.3,14.7c5.2,2.3,10.3,4.6,15.3,7.1c2.5,1.2,5,2.5,7.5,3.8c46.3,24.4,85.7,57.9,116.9,99.7
				c19.9,26.6,35.7,55.8,47,87c7.4,20.4,12.9,41.3,16.3,62.2c0.5,3,0.9,6,1.3,8.9c3.3,24.6,4,49.1,2.1,73
				c-2.2,26.4-7.5,52.5-15.6,77.5c-17,51.8-45.2,97.3-84,135.2c-29.5,28.8-63.6,51.6-101.5,67.7c-27.2,11.6-55.7,19.4-84.5,23.1
				c-2.5,0.3-5.1,0.6-7.6,0.9c-0.6,0.1-1.2,0.1-1.9,0.2c-2.5,0.3-5,0.5-7.4,0.7c-0.1,0-0.1,0-0.2,0c-2.4,0.2-4.8,0.4-7.2,0.5
				c-0.6,0-1.2,0.1-1.8,0.1c-2.4,0.1-4.8,0.3-7.3,0.3c-0.1,0-0.2,0-0.2,0c-2.3,0.1-4.7,0.1-7,0.1c-0.5,0-1.1,0-1.6,0
				c-0.5,0-1.1,0-1.6,0c-1.8,0-3.7,0-5.5-0.1c-0.1,0-0.2,0-0.2,0c-2.3,0-4.6-0.1-6.8-0.2c-0.6,0-1.2-0.1-1.7-0.1
				c-2.3-0.1-4.7-0.2-7-0.4c-13.8-1-27.3-2.8-40.2-5.3c-31.8-6.2-62.6-17.2-91.6-32.8c-13.2-7.1-25.8-15.1-37.6-23.8
				c-6.6-4.8-12.9-9.9-19-15.2c-18.4-15.8-34.7-33.5-48.7-52.7c-19.6-26.8-34.6-55.9-44.9-86.9c-3.4-10.3-6.3-20.8-8.7-31.5
				c-5.1-23-7.5-46.9-7.3-70.8c0.3-28.7,4.7-57.5,13-85.4c10.3-34.7,26.4-66.8,47.9-95.4c31.7-42.2,71.8-74.4,119.5-95.7
				c18.9-8.4,38.8-14.9,59.2-19.2c2.8-0.6,5.3-1.1,7.7-1.6C332.4,56,366.6,55.4,400.3,60.7z"/>
			<path class="st0" d="M-1.4,500.4c0.5,1.4,1,2.7,1.5,4c0.2,0.6,0.4,1.1,0.6,1.7c0.5,1.4,1.1,2.7,1.6,4.1c0.2,0.6,0.4,1.1,0.7,1.7
				c0.6,1.4,1.1,2.7,1.7,4.1c0.2,0.5,0.4,1.1,0.7,1.6c0.5,1.3,1.1,2.5,1.6,3.7c0.3,0.6,0.6,1.3,0.8,1.9c0.6,1.3,1.2,2.5,1.7,3.8
				c0.3,0.6,0.6,1.2,0.8,1.8c0.6,1.2,1.1,2.4,1.7,3.5c0.3,0.7,0.7,1.4,1,2.1c0.5,1.1,1.1,2.2,1.6,3.3c0.4,0.8,0.8,1.5,1.1,2.3
				c0.5,1,1.1,2.1,1.6,3.1c0.4,0.8,0.8,1.6,1.2,2.4c0.5,0.9,1,1.9,1.5,2.8c0.5,0.9,0.9,1.8,1.4,2.7c0.5,0.9,1,1.8,1.5,2.6
				c0.5,0.9,1,1.9,1.6,2.8c0.5,0.8,0.9,1.6,1.4,2.5c0.6,1,1.1,2,1.7,2.9c0.4,0.6,0.7,1.2,1.1,1.8c0.7,1.2,1.4,2.3,2.1,3.5
				c0.2,0.3,0.3,0.6,0.5,0.8c0.9,1.5,1.8,3,2.8,4.4c0.2,0.3,0.3,0.5,0.5,0.8c0.9,1.5,1.9,3,2.9,4.5c0.6,0.8,1.1,1.7,1.7,2.5
				c0.6,0.9,1.2,1.8,1.8,2.7c1.2,1.7,2.3,3.4,3.5,5.1c20.6,29.4,45.1,55.9,72.8,78.6c22.2,18.2,46.7,34.2,72.6,47.5
				c0.5,0.3,1,0.6,1.5,1c0.2,0.2,0.4,0.3,0.6,0.4c0.1,0.1,0.2,0.2,0.2,0.3c0,0,0,0.1,0,0.1c0,0.1,0.1,0.2,0.1,0.3c0,0,0,0,0,0
				l0.8,0.5h-1c0,0,0,0,0,0c-0.1,0.1-0.2,0.2-0.2,0.2c0,0,0,0-0.1,0c-0.1,0-0.2,0.1-0.3,0.1h-2.5c7.5,3.8,15.1,7.4,22.5,10.6
				c0.6,0.3,1.2,0.6,1.7,0.9c0.2,0.1,0.4,0.2,0.6,0.3h115.6c-17.4-1.9-34.6-5.1-51.4-9.4c-2.6-0.7-5.3-1.4-8.6-2.3l-14.4-0.1
				l-3.9-1.4c-2.6-1-5.2-1.9-7.8-2.9c-18-6.4-35.5-14.3-52.1-23.2c-33.1-17.9-63.2-40.6-89.5-67.4C83.4,603,66.8,582,52.8,559.5
				c-16.6-26.6-29.7-54.7-39-83.6c-6.7-20.8-11.5-42.5-14.4-64.4c-0.2-1.9-0.5-3.7-0.7-5.7c0-0.2-0.1-0.5-0.1-0.7V500.4z"/>
			<path class="st0" d="M682.6,240.2c-0.2-0.7-0.4-1.3-0.6-2c-0.3-0.8-0.6-1.7-0.9-2.5C681.6,237.2,682.1,238.7,682.6,240.2z"/>
			<path class="st0" d="M44.3,473.3c0,0,0-0.1,0-0.1c-0.2-0.5-0.3-1-0.5-1.5c-0.3-0.9-0.6-1.9-0.9-2.8
				C43.3,470.3,43.8,471.8,44.3,473.3z"/>
			<path class="st0" d="M529.2,728.7c0.6-0.3,1.1-0.6,1.7-0.9c1.3-0.7,2.7-1.4,4.1-2c6.1-2.7,12.5-5.7,18.9-8.9h-2.4
				c-0.1,0-0.2,0-0.3-0.1c0,0-0.1,0-0.1,0c-0.1,0-0.2-0.1-0.2-0.2c0,0,0,0,0,0h-1.3l1.2-0.6c0,0,0,0,0,0c0-0.1,0.1-0.2,0.1-0.3
				c0,0,0-0.1,0.1-0.1c0.1-0.1,0.2-0.2,0.3-0.2c1.7-0.9,3.5-1.9,5.2-2.8c3.7-2,7.5-4,11.2-6.1c16.2-9,32.3-19.4,47.9-31.1
				c20.9-15.7,41-34.2,59.7-55.1c15.6-17.5,30.1-36.9,44.1-59.6c1.4-2.3,2.8-4.7,4-6.9c0.8-1.4,1.6-2.8,2.4-4.2
				c0.3-0.5,0.6-0.8,1-1.2c0.2-0.2,0.3-0.3,0.4-0.5c0.1-0.1,0.2-0.2,0.3-0.2c0,0,0,0,0.1,0c0.1,0,0.2-0.1,0.3-0.1c0,0,0,0,0,0
				l0.4-0.5v0.7c0,0,0,0,0,0c0.1,0.1,0.2,0.2,0.2,0.3c0,0,0,0,0,0.1c0,0.1,0.1,0.2,0.1,0.3v1.5c0.8-1.4,1.5-2.7,2.3-4.1
				c0.6-1.1,1.3-2.2,2-3.2c0.3-0.4,0.5-0.8,0.8-1.3v-73c-1.5,4.6-3.2,9.4-5.1,14.2v10.1c0,0.1,0,0.3-0.1,0.4
				c-0.3,0.5-0.6,1.1-0.9,1.6c-0.6,1.1-1.2,2.2-1.7,3.4c-6.7,16.7-15.3,33.4-26,51.1c-17.4,28.6-38.5,55-62.9,78.4
				c-25.8,24.8-55.1,46-87.1,62.9c-18.9,10-39,18.5-59.5,25.2c-0.5,0.2-1,0.4-1.5,0.7c-0.3,0.1-0.5,0.3-0.8,0.4
				c-0.1,0.1-0.2,0.1-0.4,0.1H474c-19.8,5.6-40.1,9.5-60.5,11.8H529.2z"/>
			<path class="st0" d="M728.2,143.7l-0.5-0.7c-0.1,0-0.2,0-0.2-0.1c0,0-0.1,0-0.1,0c-0.1-0.1-0.2-0.1-0.3-0.3
				c-0.2-0.3-0.4-0.5-0.6-0.8c-0.5-0.7-1-1.3-1.4-2c-9.5-16.7-20.1-32.8-31.4-47.7c-17.8-23.5-38.3-45.3-60.8-64.8
				c-1.7-1.5-3.5-3-5.3-4.5c-1-0.8-2-1.6-3-2.4c-0.8-0.7-1.6-1.3-2.4-2c-1.1-0.9-2.2-1.7-3.3-2.6c-0.7-0.6-1.4-1.2-2.2-1.7
				c-1-0.8-2.1-1.6-3.2-2.4c-0.8-0.6-1.6-1.2-2.4-1.8c-1-0.8-2.1-1.5-3.1-2.3c-0.9-0.6-1.7-1.3-2.5-1.9c-1-0.7-2-1.4-3-2.1
				c-0.9-0.7-1.9-1.3-2.8-2c-0.9-0.6-1.9-1.3-2.8-1.9c-1-0.7-2-1.4-3-2.1C593-3,592-3.6,591.1-4.3c-1-0.7-2-1.3-3-2h-45
				c0.9,0.5,1.8,1,2.7,1.4c1.1,0.6,2.2,1.2,3.3,1.8c1.2,0.7,2.4,1.3,3.6,2c1.1,0.6,2.1,1.2,3.2,1.8c1.2,0.7,2.3,1.4,3.5,2
				c1.1,0.6,2.1,1.2,3.2,1.9c1.2,0.7,2.3,1.4,3.5,2.1c1,0.6,2.1,1.3,3.1,1.9c1.2,0.7,2.3,1.5,3.4,2.2c1,0.7,2,1.3,3.1,2
				c1.1,0.7,2.3,1.5,3.4,2.3c1,0.7,2,1.3,3,2c1.1,0.8,2.2,1.5,3.4,2.3c1,0.7,2,1.4,3,2.1c1.1,0.8,2.2,1.6,3.3,2.4
				c1,0.7,2,1.4,2.9,2.1c1.1,0.8,2.2,1.6,3.3,2.5c1,0.7,1.9,1.4,2.9,2.2c1.1,0.8,2.2,1.7,3.2,2.5c0.9,0.7,1.9,1.5,2.8,2.2
				c1.1,0.9,2.1,1.7,3.2,2.6c0.9,0.8,1.8,1.5,2.8,2.3c1.1,0.9,2.1,1.8,3.2,2.7c0.9,0.8,1.8,1.5,2.7,2.3c1.1,0.9,2.1,1.9,3.2,2.8
				c0.9,0.8,1.7,1.5,2.6,2.3c1.1,1,2.2,2,3.3,3c0.8,0.7,1.6,1.4,2.3,2.1c1.2,1.1,2.4,2.3,3.6,3.4c0.7,0.6,1.3,1.2,2,1.9
				c1.8,1.8,3.7,3.6,5.5,5.4c36,36.4,64.4,78.6,84.3,125.5c0.7,1.5,1.4,3.1,2,4.5c0.3,0.7,0.7,1.4,1,2.1l0,0c0,0.1,0.1,0.2,0.1,0.3
				v9.7c0.8,2.3,1.7,4.5,2.5,6.8c0.8,2.4,1.8,4.9,2.6,7.1v-71.9l-1.9-3.2c-1.1-1.8-2.1-3.7-3.2-5.5v0.6c0,0.1,0,0.2-0.1,0.3
				c0,0,0,0.1,0,0.1c-0.1,0.1-0.1,0.2-0.2,0.2c0,0,0,0,0,0V143.7z"/>
			<path class="st0" d="M118.1-6.3c-1.1,0.7-2.1,1.4-3.2,2.1c-1.1,0.7-2.2,1.4-3.3,2.2c-1.1,0.7-2.2,1.5-3.2,2.2
				c-1.1,0.7-2.2,1.5-3.2,2.2c-1.1,0.8-2.3,1.6-3.4,2.4c-1,0.7-2,1.4-3,2.1c-1.2,0.8-2.3,1.7-3.4,2.6c-0.9,0.7-1.9,1.4-2.8,2.1
				c-1.1,0.9-2.3,1.7-3.4,2.6c-0.9,0.7-1.9,1.4-2.8,2.1c-1.1,0.9-2.2,1.8-3.3,2.7c-0.9,0.7-1.9,1.5-2.8,2.2
				c-1.1,0.9-2.2,1.9-3.4,2.8c-0.9,0.7-1.8,1.5-2.7,2.2c-1.2,1-2.4,2-3.6,3.1c-0.8,0.7-1.6,1.3-2.4,2c-1.3,1.1-2.5,2.2-3.8,3.4
				c-0.7,0.6-1.4,1.2-2.1,1.8c-1.2,1.1-2.4,2.2-3.6,3.3c-0.7,0.7-1.5,1.3-2.2,2c-1.2,1.1-2.3,2.2-3.5,3.3c-0.7,0.7-1.5,1.4-2.2,2.1
				c-1.3,1.2-2.5,2.5-3.8,3.7c-0.6,0.6-1.2,1.2-1.8,1.8c-1.2,1.2-2.5,2.5-3.7,3.8c-0.6,0.6-1.2,1.2-1.8,1.8
				c-1.1,1.2-2.2,2.3-3.3,3.5c-0.7,0.7-1.4,1.5-2.1,2.2c-1.2,1.3-2.4,2.7-3.6,4c-0.5,0.6-1.1,1.2-1.6,1.8c-1.7,2-3.5,3.9-5.2,5.9
				c-2.2,2.6-4.4,5.2-6.6,7.8c-0.7,0.9-1.5,1.8-2.2,2.7c-1.4,1.8-2.9,3.5-4.3,5.4c-0.8,1.1-1.7,2.2-2.5,3.3c-1.3,1.7-2.6,3.3-3.8,5
				c-0.9,1.3-1.9,2.6-2.8,3.9c-1.1,1.5-2.2,3.1-3.3,4.6v43.9c0.7-1.3,1.5-2.5,2.2-3.7c0.8-1.3,1.5-2.6,2.3-3.9
				c0.9-1.5,1.9-3,2.8-4.5c0.8-1.3,1.6-2.6,2.4-3.8c1-1.5,2-3,2.9-4.5c0.8-1.3,1.6-2.5,2.5-3.8c1-1.5,2.1-3,3.1-4.5
				c0.8-1.2,1.7-2.4,2.5-3.6c1.1-1.5,2.2-3,3.3-4.6c0.8-1.1,1.7-2.3,2.5-3.4c1.2-1.6,2.4-3.1,3.6-4.7c0.8-1,1.6-2.1,2.4-3.1
				c1.4-1.7,2.8-3.4,4.2-5.2c0.7-0.8,1.4-1.7,2-2.5c2.1-2.5,4.2-5.1,6.4-7.6c21.8-25.2,46.8-47.8,74.1-67c1.9-1.3,3.8-2.6,5.7-4
				c0.6-0.4,1.2-0.8,1.9-1.2c1.3-0.9,2.6-1.7,3.9-2.6c0.8-0.5,1.6-1,2.3-1.5c1.2-0.8,2.3-1.5,3.5-2.3c0.8-0.5,1.7-1,2.5-1.6
				c1.1-0.7,2.3-1.4,3.4-2.1c0.9-0.5,1.8-1.1,2.7-1.6c1.1-0.7,2.2-1.3,3.3-2c0.9-0.5,1.8-1.1,2.8-1.6c1.1-0.6,2.2-1.3,3.3-1.9
				c0.9-0.5,1.9-1,2.8-1.6c1.1-0.6,2.2-1.2,3.3-1.8c0.9-0.5,1.9-1,2.8-1.5c0.8-0.4,1.6-0.9,2.4-1.3H118.1z"/>
			<path class="st0" d="M-1.4,619.3c0.1,0.1,0.3,0.3,0.4,0.4c0.6,0.6,1.2,1.2,1.6,1.8c13.5,19.1,28.6,37.2,44.7,53.8
				c18.7,19.1,38.9,36.5,60.2,51.7c0.6,0.4,1,0.9,1.5,1.3l0.1,0.1c0.1,0.1,0.2,0.2,0.3,0.3h48.5c-0.4-0.3-0.8-0.5-1.2-0.8
				c-5.8-3.4-11.8-7.1-17.8-11h-3.4c-0.2,0-0.3-0.1-0.5-0.2l-0.8-0.6c-0.6-0.4-1.1-0.8-1.7-1.2c-15.7-10.5-30.9-22.2-45.2-34.9
				c-20.6-18.3-39.4-38.4-55.8-60c-1.4-1.8-2.8-3.7-4.2-5.6c-0.4-0.6-0.9-1.2-1.3-1.8c-0.9-1.3-1.9-2.6-2.8-3.9
				c-0.5-0.8-1.1-1.5-1.6-2.3c-0.8-1.2-1.6-2.3-2.4-3.5c-0.6-0.8-1.2-1.7-1.7-2.6c-0.7-1.1-1.5-2.2-2.2-3.3
				c-0.6-0.9-1.2-1.8-1.8-2.7c-0.7-1.1-1.4-2.1-2.1-3.2c-0.6-0.9-1.2-1.9-1.8-2.8c-0.7-1.1-1.3-2.1-2-3.2c-0.6-1-1.2-1.9-1.8-2.9
				c-0.7-1.1-1.3-2.1-1.9-3.2c-0.6-1-1.2-2-1.7-2.9c-0.5-0.8-1-1.6-1.4-2.4V619.3z"/>
			<path class="st0" d="M592.8,726.3l-0.1,0.1c-1.3,0.8-2.6,1.6-3.8,2.3h47.1c1.6-1.2,3.2-2.4,4.8-3.6l0.6-0.4c4-2.9,8.1-6,12-9.1
				c29.2-22.6,55.6-48.6,78.5-77.4c0.4-0.5,0.9-1,1.3-1.4c0.1-0.1,0.3-0.2,0.4-0.4v-42.9c-0.2,0.3-0.4,0.5-0.6,0.8
				c-1.5,2.2-3,4.3-4.5,6.4v1.1c0,0.2-0.1,0.4-0.2,0.6c-0.2,0.2-0.4,0.5-0.7,0.7c-0.4,0.5-0.9,0.9-1.3,1.4c-1.9,2.5-3.8,5-5.7,7.5
				l-0.2,0.2c-3.9,5.2-7.9,10.5-12.1,15.6c-27.6,33.6-59.9,62.9-96,86.9c-0.5,0.3-0.9,0.7-1.4,1.2c-0.2,0.2-0.5,0.5-0.7,0.7
				c-0.2,0.1-0.4,0.2-0.6,0.2h-2l-1.4,0.9C601.9,720.7,597.2,723.6,592.8,726.3z"/>
			<path class="st0" d="M714.5,33.1C703.4,20.4,691.1,8,678-3.9c-0.6-0.6-1.2-1.2-1.8-1.8c-0.2-0.2-0.4-0.4-0.5-0.6h-35.5
				c18.5,14.9,35.8,31.1,51.3,48.2C703.2,54.8,714,68,723.7,81.4c2.6,3.7,5.2,7.3,7.9,11l2,2.8V55.8c-1.9-2.3-3.8-4.6-5.8-6.9
				C723.4,43.6,719,38.2,714.5,33.1z"/>
			<path class="st0" d="M0,26.6c-0.4,0.4-0.8,0.7-1.2,1l-0.2,0.1v30.2C13.4,40.4,29.3,24.1,45.9,9.7c4.7-4.1,9.5-8.1,14.1-12
				c1.6-1.3,3.2-2.6,4.7-3.9H33.2L33-6.1c-0.3,0.5-0.7,1-1.1,1.4C21.3,5.8,10.6,16.2,0,26.6z"/>
			<path class="st0" d="M2,675.9c-1.1-1.3-2.3-2.5-3.3-3.7l-0.1-0.1v25.7l0.7,0.6c0.7,0.6,1.3,1.2,2,1.8
				c8.8,8.8,17.6,17.6,26.4,26.4c0.5,0.5,1,1,1.4,1.5l0.4,0.4h25.3c-0.1-0.1-0.2-0.2-0.3-0.3C35.4,712,17.8,694.3,2,675.9z"/>
			<path class="st0" d="M698,723.7L698,723.7c-1.7,1.5-3.3,3-5,4.4l-0.7,0.6h20.2l3.3-3.2c5.5-5.3,11-10.6,16.4-15.8
				c0.3-0.3,0.7-0.6,1.1-0.8l0.1,0v-19.3c-0.2,0.2-0.4,0.4-0.6,0.6C721.8,701.8,710.1,713.1,698,723.7z"/>
		</g>
	</g>
</g>
</svg>
